#!OML:ASF E:\inclinewalkrobotboard\Project 1\Capture day 1\Session 1\subject1.ASF
:FULLY-SPECIFIED
:DEGREES
1105
root 10.81 16.382 -9.34381 13.7204 -2.35072 1.4349
lowerback -2.71755 0.198917 -6.63432
upperback 5.51064 0.583965 1.64415
thorax 7.2532 -0.140474 5.519
lowerneck -5.02046 -1.34683 -2.85366
upperneck 42.3203 -1.99809 1.3078
head 15.9495 -1.12118 0.812102
rclavicle 2.08724e-015 -5.1684e-015
rhumerus -48.0102 -16.7331 -52.6337
rradius 21.9775
rwrist 22.3629
rhand -14.7036 -41.084
rfingers 7.12502
rthumb 11.4506 -430.751
lclavicle 2.08724e-015 -5.1684e-015
lhumerus -44.8529 11.1345 70.7423
lradius 20.4839
lwrist -23.7708
lhand -19.6427 341.026
lfingers 7.12502
lthumb 6.68479 10.9007
rfemur -16.5033 5.94897 8.2281
rtibia 7.8722
rfoot -8.43766 -9.42442
rtoes -35.4742
lfemur -19.8636 -5.51366 -20.9696
ltibia 11.7391
lfoot -10.6213 -1.0568
ltoes -52.7304
1106
root 10.8937 16.3685 -9.33294 13.6217 -2.26967 1.33382
lowerback -2.7895 0.224275 -6.26499
upperback 5.70618 0.596238 1.7552
thorax 7.50237 -0.132124 5.433
lowerneck -4.75288 -1.5986 -2.91273
upperneck 42.232 -2.32264 1.18301
head 15.8478 -1.28004 0.725158
rclavicle -3.57812e-015 1.90833e-014
rhumerus -47.8684 -15.999 -52.7203
rradius 22.4168
rwrist 21.4016
rhand -14.2268 -41.6623
rfingers 7.12502
rthumb 11.9104 -431.303
lclavicle -3.57812e-015 1.90833e-014
lhumerus -44.5313 10.5601 71.444
lradius 20.9482
lwrist -23.0647
lhand -19.3194 341.446
lfingers 7.12502
lthumb 6.9968 11.3107
rfemur -16.1648 5.45916 8.13252
rtibia 7.77159
rfoot -8.51838 -9.03213
rtoes -36.8705
lfemur -19.6175 -5.18622 -21.3862
ltibia 11.7532
lfoot -10.8102 -1.57021
ltoes -52.5096
1107
root 10.9645 16.3699 -9.35643 13.4038 -2.38123 1.14058
lowerback -2.26065 0.490242 -5.9721
upperback 5.88354 0.89888 1.84895
thorax 7.34086 0.032442 5.38493
lowerneck -4.76629 -1.9565 -2.83654
upperneck 42.1851 -2.86929 1.1855
head 15.8417 -1.49158 0.637306
rclavicle -7.55382e-015 4.77083e-015
rhumerus -48.0621 -15.193 -53.1852
rradius 23.4981
rwrist 19.7524
rhand -13.8282 -42.6073
rfingers 7.12502
rthumb 12.2947 -432.226
lclavicle -7.55382e-015 4.77083e-015
lhumerus -43.8152 9.34472 72.3945
lradius 21.5551
lwrist -22.1111
lhand -18.9492 341.445
lfingers 7.12502
lthumb 7.35421 11.2969
rfemur -16.2938 5.96549 8.04072
rtibia 8.219
rfoot -8.73696 -9.49839
rtoes -37.2941
lfemur -19.6243 -4.98465 -21.4272
ltibia 12.0511
lfoot -11.0966 -1.53386
ltoes -53.1995
1108
root 11.0332 16.373 -9.38573 13.4068 -2.26688 0.820005
lowerback -1.85073 0.773096 -5.41202
upperback 6.00924 1.2213 1.89218
thorax 7.19438 0.225145 5.13049
lowerneck -4.94537 -2.41038 -2.68848
upperneck 42.1454 -3.64541 1.38866
head 15.8894 -1.76114 0.589256
rclavicle -8.34896e-015 -1.23246e-014
rhumerus -48.2704 -15.1157 -53.5692
rradius 24.4319
rwrist 18.543
rhand -14.1213 -42.4559
rfingers 7.12502
rthumb 12.0122 -432.091
lclavicle -8.34896e-015 -1.23246e-014
lhumerus -42.7145 7.97985 73.2117
lradius 22.0902
lwrist -21.7475
lhand -18.9182 341.279
lfingers 7.12502
lthumb 7.38406 11.1306
rfemur -16.7927 6.50527 8.08683
rtibia 9.03685
rfoot -9.26959 -10.1772
rtoes -36.7091
lfemur -19.9562 -4.96076 -21.2559
ltibia 12.3847
lfoot -11.2048 -1.63705
ltoes -53.5183
1109
root 11.1193 16.3538 -9.35497 13.3099 -2.05982 1.09179
lowerback -2.22423 1.07137 -5.02686
upperback 6.32517 1.64103 1.61762
thorax 7.71079 0.439705 4.67078
lowerneck -5.1213 -3.00204 -2.18667
upperneck 42.049 -4.6886 1.57155
head 15.9031 -2.08792 0.429537
rclavicle -1.76918e-014 3.97569e-016
rhumerus -48.6277 -15.8044 -53.8631
rradius 25.3135
rwrist 17.7069
rhand -14.0647 -42.5888
rfingers 7.12502
rthumb 12.0667 -432.221
lclavicle -1.76918e-014 3.97569e-016
lhumerus -41.3437 5.72917 74.2478
lradius 22.6975
lwrist -21.2647
lhand -19.462 341.223
lfingers 7.12502
lthumb 6.85919 11.092
rfemur -16.5862 5.93381 7.54673
rtibia 9.51678
rfoot -9.92066 -9.8696
rtoes -35.7524
lfemur -19.4949 -5.18929 -22.1528
ltibia 12.0528
lfoot -11.0749 -2.14623
ltoes -52.7049
